<?xml version="1.0" standalone="no"?><!DOCTYPE svg PUBLIC "-//W3C//DTD SVG 1.1//EN" "http://www.w3.org/Graphics/SVG/1.1/DTD/svg11.dtd"><svg class="icon" width="200px" height="200.00px" viewBox="0 0 1024 1024" version="1.1" xmlns="http://www.w3.org/2000/svg"><path d="M917.333333 1002.666667a390.037333 390.037333 0 0 0-161.152-42.666667A497.92 497.92 0 0 0 576 1002.666667a84.736 84.736 0 0 1-64-29.44A84.736 84.736 0 0 1 448 1002.666667a497.92 497.92 0 0 0-180.181333-42.666667A390.037333 390.037333 0 0 0 106.666667 1002.666667a85.333333 85.333333 0 0 1-85.333334-85.333334V128C21.333333 43.904 170.666667 20.096 256 21.333333c96 1.408 206.933333 26.730667 256 88.085334C561.066667 48.064 672 22.741333 768 21.333333c85.333333-1.237333 234.666667 22.570667 234.666667 106.666667v789.333333a85.333333 85.333333 0 0 1-85.333334 85.333334zM490.666667 149.333333c-52.736-59.157333-152.106667-84.074667-234.666667-85.333333-142.229333-2.133333-192 37.717333-192 64v789.333333a42.666667 42.666667 0 0 0 42.666667 42.666667 360.405333 360.405333 0 0 1 162.986666-42.666667A540.970667 540.970667 0 0 1 448 960a42.666667 42.666667 0 0 0 42.666667-42.666667V149.333333z m469.333333-21.333333c0-26.282667-49.770667-66.133333-192-64-82.56 1.258667-181.930667 26.176-234.666667 85.333333v768a42.666667 42.666667 0 0 0 42.666667 42.666667 540.970667 540.970667 0 0 1 178.346667-42.666667A360.405333 360.405333 0 0 1 917.333333 960a42.666667 42.666667 0 0 0 42.666667-42.666667V128z" fill="#333333" /></svg>